%TF.GenerationSoftware,KiCad,Pcbnew,8.0.8*%
%TF.CreationDate,2025-02-08T15:21:21-08:00*%
%TF.ProjectId,PCB_Design,5043425f-4465-4736-9967-6e2e6b696361,V1.0*%
%TF.SameCoordinates,Original*%
%TF.FileFunction,Legend,Bot*%
%TF.FilePolarity,Positive*%
%FSLAX46Y46*%
G04 Gerber Fmt 4.6, Leading zero omitted, Abs format (unit mm)*
G04 Created by KiCad (PCBNEW 8.0.8) date 2025-02-08 15:21:21*
%MOMM*%
%LPD*%
G01*
G04 APERTURE LIST*
%ADD10C,0.150000*%
%ADD11C,0.100000*%
%ADD12C,0.120000*%
G04 APERTURE END LIST*
D10*
X47008214Y-50381009D02*
X46865357Y-50428628D01*
X46865357Y-50428628D02*
X46817738Y-50476247D01*
X46817738Y-50476247D02*
X46770119Y-50571485D01*
X46770119Y-50571485D02*
X46770119Y-50714342D01*
X46770119Y-50714342D02*
X46817738Y-50809580D01*
X46817738Y-50809580D02*
X46865357Y-50857200D01*
X46865357Y-50857200D02*
X46960595Y-50904819D01*
X46960595Y-50904819D02*
X47341547Y-50904819D01*
X47341547Y-50904819D02*
X47341547Y-49904819D01*
X47341547Y-49904819D02*
X47008214Y-49904819D01*
X47008214Y-49904819D02*
X46912976Y-49952438D01*
X46912976Y-49952438D02*
X46865357Y-50000057D01*
X46865357Y-50000057D02*
X46817738Y-50095295D01*
X46817738Y-50095295D02*
X46817738Y-50190533D01*
X46817738Y-50190533D02*
X46865357Y-50285771D01*
X46865357Y-50285771D02*
X46912976Y-50333390D01*
X46912976Y-50333390D02*
X47008214Y-50381009D01*
X47008214Y-50381009D02*
X47341547Y-50381009D01*
X46484404Y-49904819D02*
X45912976Y-49904819D01*
X46198690Y-50904819D02*
X46198690Y-49904819D01*
X45627261Y-50000057D02*
X45579642Y-49952438D01*
X45579642Y-49952438D02*
X45484404Y-49904819D01*
X45484404Y-49904819D02*
X45246309Y-49904819D01*
X45246309Y-49904819D02*
X45151071Y-49952438D01*
X45151071Y-49952438D02*
X45103452Y-50000057D01*
X45103452Y-50000057D02*
X45055833Y-50095295D01*
X45055833Y-50095295D02*
X45055833Y-50190533D01*
X45055833Y-50190533D02*
X45103452Y-50333390D01*
X45103452Y-50333390D02*
X45674880Y-50904819D01*
X45674880Y-50904819D02*
X45055833Y-50904819D01*
X40607200Y-55666667D02*
X40654819Y-55809524D01*
X40654819Y-55809524D02*
X40654819Y-56047619D01*
X40654819Y-56047619D02*
X40607200Y-56142857D01*
X40607200Y-56142857D02*
X40559580Y-56190476D01*
X40559580Y-56190476D02*
X40464342Y-56238095D01*
X40464342Y-56238095D02*
X40369104Y-56238095D01*
X40369104Y-56238095D02*
X40273866Y-56190476D01*
X40273866Y-56190476D02*
X40226247Y-56142857D01*
X40226247Y-56142857D02*
X40178628Y-56047619D01*
X40178628Y-56047619D02*
X40131009Y-55857143D01*
X40131009Y-55857143D02*
X40083390Y-55761905D01*
X40083390Y-55761905D02*
X40035771Y-55714286D01*
X40035771Y-55714286D02*
X39940533Y-55666667D01*
X39940533Y-55666667D02*
X39845295Y-55666667D01*
X39845295Y-55666667D02*
X39750057Y-55714286D01*
X39750057Y-55714286D02*
X39702438Y-55761905D01*
X39702438Y-55761905D02*
X39654819Y-55857143D01*
X39654819Y-55857143D02*
X39654819Y-56095238D01*
X39654819Y-56095238D02*
X39702438Y-56238095D01*
X39654819Y-56571429D02*
X40654819Y-56809524D01*
X40654819Y-56809524D02*
X39940533Y-57000000D01*
X39940533Y-57000000D02*
X40654819Y-57190476D01*
X40654819Y-57190476D02*
X39654819Y-57428572D01*
X40654819Y-58333333D02*
X40654819Y-57761905D01*
X40654819Y-58047619D02*
X39654819Y-58047619D01*
X39654819Y-58047619D02*
X39797676Y-57952381D01*
X39797676Y-57952381D02*
X39892914Y-57857143D01*
X39892914Y-57857143D02*
X39940533Y-57761905D01*
X40796666Y-70454819D02*
X41129999Y-69978628D01*
X41368094Y-70454819D02*
X41368094Y-69454819D01*
X41368094Y-69454819D02*
X40987142Y-69454819D01*
X40987142Y-69454819D02*
X40891904Y-69502438D01*
X40891904Y-69502438D02*
X40844285Y-69550057D01*
X40844285Y-69550057D02*
X40796666Y-69645295D01*
X40796666Y-69645295D02*
X40796666Y-69788152D01*
X40796666Y-69788152D02*
X40844285Y-69883390D01*
X40844285Y-69883390D02*
X40891904Y-69931009D01*
X40891904Y-69931009D02*
X40987142Y-69978628D01*
X40987142Y-69978628D02*
X41368094Y-69978628D01*
X39844285Y-70454819D02*
X40415713Y-70454819D01*
X40129999Y-70454819D02*
X40129999Y-69454819D01*
X40129999Y-69454819D02*
X40225237Y-69597676D01*
X40225237Y-69597676D02*
X40320475Y-69692914D01*
X40320475Y-69692914D02*
X40415713Y-69740533D01*
X64077009Y-74833333D02*
X64124628Y-74976190D01*
X64124628Y-74976190D02*
X64172247Y-75023809D01*
X64172247Y-75023809D02*
X64267485Y-75071428D01*
X64267485Y-75071428D02*
X64410342Y-75071428D01*
X64410342Y-75071428D02*
X64505580Y-75023809D01*
X64505580Y-75023809D02*
X64553200Y-74976190D01*
X64553200Y-74976190D02*
X64600819Y-74880952D01*
X64600819Y-74880952D02*
X64600819Y-74500000D01*
X64600819Y-74500000D02*
X63600819Y-74500000D01*
X63600819Y-74500000D02*
X63600819Y-74833333D01*
X63600819Y-74833333D02*
X63648438Y-74928571D01*
X63648438Y-74928571D02*
X63696057Y-74976190D01*
X63696057Y-74976190D02*
X63791295Y-75023809D01*
X63791295Y-75023809D02*
X63886533Y-75023809D01*
X63886533Y-75023809D02*
X63981771Y-74976190D01*
X63981771Y-74976190D02*
X64029390Y-74928571D01*
X64029390Y-74928571D02*
X64077009Y-74833333D01*
X64077009Y-74833333D02*
X64077009Y-74500000D01*
X64600819Y-75500000D02*
X63934152Y-75500000D01*
X64124628Y-75500000D02*
X64029390Y-75547619D01*
X64029390Y-75547619D02*
X63981771Y-75595238D01*
X63981771Y-75595238D02*
X63934152Y-75690476D01*
X63934152Y-75690476D02*
X63934152Y-75785714D01*
X64600819Y-76547619D02*
X63600819Y-76547619D01*
X64553200Y-76547619D02*
X64600819Y-76452381D01*
X64600819Y-76452381D02*
X64600819Y-76261905D01*
X64600819Y-76261905D02*
X64553200Y-76166667D01*
X64553200Y-76166667D02*
X64505580Y-76119048D01*
X64505580Y-76119048D02*
X64410342Y-76071429D01*
X64410342Y-76071429D02*
X64124628Y-76071429D01*
X64124628Y-76071429D02*
X64029390Y-76119048D01*
X64029390Y-76119048D02*
X63981771Y-76166667D01*
X63981771Y-76166667D02*
X63934152Y-76261905D01*
X63934152Y-76261905D02*
X63934152Y-76452381D01*
X63934152Y-76452381D02*
X63981771Y-76547619D01*
X64600819Y-77547619D02*
X64600819Y-76976191D01*
X64600819Y-77261905D02*
X63600819Y-77261905D01*
X63600819Y-77261905D02*
X63743676Y-77166667D01*
X63743676Y-77166667D02*
X63838914Y-77071429D01*
X63838914Y-77071429D02*
X63886533Y-76976191D01*
X45468094Y-77494819D02*
X45468094Y-76494819D01*
X45468094Y-76494819D02*
X45229999Y-76494819D01*
X45229999Y-76494819D02*
X45087142Y-76542438D01*
X45087142Y-76542438D02*
X44991904Y-76637676D01*
X44991904Y-76637676D02*
X44944285Y-76732914D01*
X44944285Y-76732914D02*
X44896666Y-76923390D01*
X44896666Y-76923390D02*
X44896666Y-77066247D01*
X44896666Y-77066247D02*
X44944285Y-77256723D01*
X44944285Y-77256723D02*
X44991904Y-77351961D01*
X44991904Y-77351961D02*
X45087142Y-77447200D01*
X45087142Y-77447200D02*
X45229999Y-77494819D01*
X45229999Y-77494819D02*
X45468094Y-77494819D01*
X43944285Y-77494819D02*
X44515713Y-77494819D01*
X44229999Y-77494819D02*
X44229999Y-76494819D01*
X44229999Y-76494819D02*
X44325237Y-76637676D01*
X44325237Y-76637676D02*
X44420475Y-76732914D01*
X44420475Y-76732914D02*
X44515713Y-76780533D01*
D11*
X65491904Y-35257419D02*
X65491904Y-36066942D01*
X65491904Y-36066942D02*
X65444285Y-36162180D01*
X65444285Y-36162180D02*
X65396666Y-36209800D01*
X65396666Y-36209800D02*
X65301428Y-36257419D01*
X65301428Y-36257419D02*
X65110952Y-36257419D01*
X65110952Y-36257419D02*
X65015714Y-36209800D01*
X65015714Y-36209800D02*
X64968095Y-36162180D01*
X64968095Y-36162180D02*
X64920476Y-36066942D01*
X64920476Y-36066942D02*
X64920476Y-35257419D01*
X63920476Y-36257419D02*
X64491904Y-36257419D01*
X64206190Y-36257419D02*
X64206190Y-35257419D01*
X64206190Y-35257419D02*
X64301428Y-35400276D01*
X64301428Y-35400276D02*
X64396666Y-35495514D01*
X64396666Y-35495514D02*
X64491904Y-35543133D01*
X91380476Y-75752580D02*
X91380476Y-76752580D01*
X91380476Y-76752580D02*
X91713809Y-76038295D01*
X91713809Y-76038295D02*
X92047142Y-76752580D01*
X92047142Y-76752580D02*
X92047142Y-75752580D01*
X93047142Y-75752580D02*
X92475714Y-75752580D01*
X92761428Y-75752580D02*
X92761428Y-76752580D01*
X92761428Y-76752580D02*
X92666190Y-76609723D01*
X92666190Y-76609723D02*
X92570952Y-76514485D01*
X92570952Y-76514485D02*
X92475714Y-76466866D01*
D12*
%TO.C,BT2*%
X40312500Y-45250000D02*
X40912500Y-45550000D01*
X40312500Y-45850000D02*
X40312500Y-45250000D01*
X40912500Y-45550000D02*
X40312500Y-45850000D01*
X41112500Y-40640000D02*
X41112500Y-49360000D01*
X41112500Y-49360000D02*
X51332500Y-49360000D01*
X51332500Y-40640000D02*
X41112500Y-40640000D01*
X51332500Y-49360000D02*
X51332500Y-40640000D01*
%TO.C,SW1*%
X41290000Y-51890000D02*
X41290000Y-62110000D01*
X41290000Y-62110000D02*
X45310000Y-62110000D01*
X41790000Y-52390000D02*
X43000000Y-52390000D01*
X41790000Y-61610000D02*
X41790000Y-52390000D01*
X43000000Y-52390000D02*
X43000000Y-51890000D01*
X43000000Y-61610000D02*
X41790000Y-61610000D01*
X43000000Y-62110000D02*
X43000000Y-61610000D01*
X43810000Y-52890000D02*
X43810000Y-51890000D01*
X43810000Y-61110000D02*
X43810000Y-62110000D01*
X45310000Y-51890000D02*
X41290000Y-51890000D01*
X45310000Y-52890000D02*
X43810000Y-52890000D01*
X45310000Y-61110000D02*
X43810000Y-61110000D01*
X45310000Y-62110000D02*
X45310000Y-51890000D01*
X45610000Y-51590000D02*
X43110000Y-51590000D01*
X45610000Y-54090000D02*
X45610000Y-51590000D01*
%TO.C,R1*%
X41630000Y-66730000D02*
X41630000Y-73270000D01*
X41630000Y-73270000D02*
X44370000Y-73270000D01*
X43000000Y-66730000D02*
X43000000Y-65960000D01*
X43000000Y-73270000D02*
X43000000Y-74040000D01*
X44370000Y-66730000D02*
X41630000Y-66730000D01*
X44370000Y-73270000D02*
X44370000Y-66730000D01*
%TO.C,Brd1*%
X49400000Y-62000000D02*
X76700000Y-62000000D01*
X49400000Y-89400000D02*
X49400000Y-62000000D01*
X56780000Y-62538000D02*
X56805000Y-65878000D01*
X56805000Y-88978000D02*
X56805000Y-65878000D01*
X73405000Y-62792000D02*
X73405000Y-65878000D01*
X73405000Y-62792000D02*
X73417000Y-62538000D01*
X73405000Y-65878000D02*
X73405000Y-88978000D01*
X73405000Y-88978000D02*
X56805000Y-88978000D01*
X73417000Y-62538000D02*
X56780000Y-62538000D01*
X73798000Y-70920000D02*
X76211000Y-70920000D01*
X73798000Y-80699000D02*
X73798000Y-70920000D01*
X73798000Y-80699000D02*
X76211000Y-80699000D01*
X76211000Y-70920000D02*
X76211000Y-80699000D01*
X76700000Y-62000000D02*
X76700000Y-89400000D01*
X76700000Y-89400000D02*
X49400000Y-89400000D01*
%TO.C,D1*%
X47290000Y-82545000D02*
X47290000Y-79455000D01*
X41740000Y-80999952D02*
G75*
G02*
X47290000Y-79455170I2990000J-48D01*
G01*
X47290000Y-82544830D02*
G75*
G02*
X41740000Y-81000048I-2560000J1544830D01*
G01*
X47230000Y-81000000D02*
G75*
G02*
X42230000Y-81000000I-2500000J0D01*
G01*
X42230000Y-81000000D02*
G75*
G02*
X47230000Y-81000000I2500000J0D01*
G01*
D11*
%TO.C,U1*%
X62190000Y-39840000D02*
X62190000Y-43650000D01*
X62190000Y-43650000D02*
X69810000Y-43650000D01*
X69810000Y-43650000D02*
X69810000Y-39840000D01*
%TD*%
M02*
