M48
; DRILL file {KiCad 8.0.8} date 2025-02-21T09:36:51-0800
; FORMAT={-:-/ absolute / inch / decimal}
; #@! TF.CreationDate,2025-02-21T09:36:51-08:00
; #@! TF.GenerationSoftware,Kicad,Pcbnew,8.0.8
; #@! TF.FileFunction,Plated,1,2,PTH
FMAT,2
INCH
; #@! TA.AperFunction,Plated,PTH,ComponentDrill
T1C0.0295
; #@! TA.AperFunction,Plated,PTH,ComponentDrill
T2C0.0315
; #@! TA.AperFunction,Plated,PTH,ComponentDrill
T3C0.0335
; #@! TA.AperFunction,Plated,PTH,ComponentDrill
T4C0.0354
; #@! TA.AperFunction,Plated,PTH,ComponentDrill
T5C0.0374
; #@! TA.AperFunction,Plated,PTH,ComponentDrill
T6C0.0394
; #@! TA.AperFunction,Plated,PTH,ComponentDrill
T7C0.0400
%
G90
G05
T1
X1.7214Y-1.7933
X1.8001Y-1.7933
T2
X1.6929Y-2.5559
X1.6929Y-2.9559
T3
X3.2295Y-2.1004
X3.2295Y-2.4004
X4.1295Y-2.1004
X4.1295Y-2.4004
T4
X1.711Y-3.189
X1.811Y-3.189
T5
X1.6929Y-2.1457
X1.6929Y-2.2441
X1.6929Y-2.3425
T6
X2.9528Y-2.8346
X2.9528Y-2.9346
X2.9528Y-3.0346
X2.9528Y-3.1346
T7
X2.2984Y-1.6685
X2.2984Y-1.7685
X2.2984Y-1.8685
X2.2984Y-1.9685
X2.2984Y-2.0685
X2.2984Y-2.1685
X2.2984Y-2.2685
X2.8984Y-1.6685
X2.8984Y-1.7685
X2.8984Y-1.8685
X2.8984Y-1.9685
X2.8984Y-2.0685
X2.8984Y-2.1685
X2.8984Y-2.2685
M30
