%TF.GenerationSoftware,KiCad,Pcbnew,8.0.8*%
%TF.CreationDate,2025-02-21T09:36:53-08:00*%
%TF.ProjectId,PCB_Design,5043425f-4465-4736-9967-6e2e6b696361,V1.0*%
%TF.SameCoordinates,Original*%
%TF.FileFunction,Copper,L1,Top*%
%TF.FilePolarity,Positive*%
%FSLAX46Y46*%
G04 Gerber Fmt 4.6, Leading zero omitted, Abs format (unit mm)*
G04 Created by KiCad (PCBNEW 8.0.8) date 2025-02-21 09:36:53*
%MOMM*%
%LPD*%
G01*
G04 APERTURE LIST*
G04 Aperture macros list*
%AMRoundRect*
0 Rectangle with rounded corners*
0 $1 Rounding radius*
0 $2 $3 $4 $5 $6 $7 $8 $9 X,Y pos of 4 corners*
0 Add a 4 corners polygon primitive as box body*
4,1,4,$2,$3,$4,$5,$6,$7,$8,$9,$2,$3,0*
0 Add four circle primitives for the rounded corners*
1,1,$1+$1,$2,$3*
1,1,$1+$1,$4,$5*
1,1,$1+$1,$6,$7*
1,1,$1+$1,$8,$9*
0 Add four rect primitives between the rounded corners*
20,1,$1+$1,$2,$3,$4,$5,0*
20,1,$1+$1,$4,$5,$6,$7,0*
20,1,$1+$1,$6,$7,$8,$9,0*
20,1,$1+$1,$8,$9,$2,$3,0*%
G04 Aperture macros list end*
%TA.AperFunction,ComponentPad*%
%ADD10RoundRect,0.250000X-0.350000X-0.625000X0.350000X-0.625000X0.350000X0.625000X-0.350000X0.625000X0*%
%TD*%
%TA.AperFunction,ComponentPad*%
%ADD11O,1.200000X1.750000*%
%TD*%
%TA.AperFunction,ComponentPad*%
%ADD12C,1.600000*%
%TD*%
%TA.AperFunction,ComponentPad*%
%ADD13O,1.600000X1.600000*%
%TD*%
%TA.AperFunction,ComponentPad*%
%ADD14O,2.000000X1.600000*%
%TD*%
%TA.AperFunction,ComponentPad*%
%ADD15C,1.800000*%
%TD*%
%TA.AperFunction,ComponentPad*%
%ADD16R,1.800000X1.800000*%
%TD*%
%TA.AperFunction,ComponentPad*%
%ADD17O,3.556000X1.778000*%
%TD*%
%TA.AperFunction,ComponentPad*%
%ADD18C,1.700000*%
%TD*%
%TA.AperFunction,ComponentPad*%
%ADD19RoundRect,0.250000X-0.725000X0.600000X-0.725000X-0.600000X0.725000X-0.600000X0.725000X0.600000X0*%
%TD*%
%TA.AperFunction,ComponentPad*%
%ADD20O,1.950000X1.700000*%
%TD*%
%TA.AperFunction,Conductor*%
%ADD21C,0.500000*%
%TD*%
%TA.AperFunction,Conductor*%
%ADD22C,0.254000*%
%TD*%
G04 APERTURE END LIST*
D10*
%TO.P,BT2,1,+*%
%TO.N,Net-(BT2-+)*%
X43722500Y-45550000D03*
D11*
%TO.P,BT2,2,-*%
%TO.N,GND*%
X45722500Y-45550000D03*
%TD*%
D12*
%TO.P,R1,1*%
%TO.N,Net-(Brd1-VCC)*%
X43000000Y-64920000D03*
D13*
%TO.P,R1,2*%
%TO.N,Net-(D1-A)*%
X43000000Y-75080000D03*
%TD*%
D14*
%TO.P,Brd1,1,GND*%
%TO.N,GND*%
X75000000Y-79620000D03*
%TO.P,Brd1,2,VCC*%
%TO.N,Net-(Brd1-VCC)*%
X75000000Y-77080000D03*
%TO.P,Brd1,3,SCL*%
%TO.N,Net-(Brd1-SCL)*%
X75000000Y-74540000D03*
%TO.P,Brd1,4,SDA*%
%TO.N,Net-(Brd1-SDA)*%
X75000000Y-72000000D03*
%TD*%
D15*
%TO.P,D1,2,A*%
%TO.N,Net-(D1-A)*%
X43460000Y-81000000D03*
D16*
%TO.P,D1,1,K*%
%TO.N,GND*%
X46000000Y-81000000D03*
%TD*%
D17*
%TO.P,U1,1,GPIO1_A0_D0*%
%TO.N,Net-(U1-GPIO1_A0_D0)*%
X74382000Y-42380000D03*
%TO.P,U1,2,GPIO2_A1_D1*%
%TO.N,Net-(M1--)*%
X74382000Y-44920000D03*
%TO.P,U1,3,GPIO3_A2_D2*%
%TO.N,Net-(U1-GPIO3_A2_D2)*%
X74382000Y-47460000D03*
%TO.P,U1,4,GPIO4_A3_D3*%
%TO.N,Net-(U1-GPIO4_A3_D3)*%
X74382000Y-50000000D03*
%TO.P,U1,5,GPIO4_A3_D3_SDA*%
%TO.N,Net-(Brd1-SDA)*%
X74382000Y-52540000D03*
%TO.P,U1,6,GPIO6_A5_D5_SCL*%
%TO.N,Net-(Brd1-SCL)*%
X74382000Y-55080000D03*
%TO.P,U1,7,GPIO43_TX_D6*%
%TO.N,unconnected-(U1-GPIO43_TX_D6-Pad7)*%
X74382000Y-57620000D03*
%TO.P,U1,8,5V*%
%TO.N,unconnected-(U1-5V-Pad8)*%
X57618000Y-42380000D03*
%TO.P,U1,9,GND*%
%TO.N,GND*%
X57618000Y-44920000D03*
%TO.P,U1,10,3V3*%
%TO.N,Net-(Brd1-VCC)*%
X57618000Y-47460000D03*
%TO.P,U1,11,GPIO9_A10_D10_COPI*%
%TO.N,unconnected-(U1-GPIO9_A10_D10_COPI-Pad11)*%
X57618000Y-50000000D03*
%TO.P,U1,12,GPIO8_A9_D9_CIPO*%
%TO.N,unconnected-(U1-GPIO8_A9_D9_CIPO-Pad12)*%
X57618000Y-52540000D03*
%TO.P,U1,13,GPIO7_A8_D8_SCK*%
%TO.N,unconnected-(U1-GPIO7_A8_D8_SCK-Pad13)*%
X57618000Y-55080000D03*
%TO.P,U1,14,GPIO44_D7_RX*%
%TO.N,unconnected-(U1-GPIO44_D7_RX-Pad14)*%
X57618000Y-57620000D03*
%TD*%
D18*
%TO.P,M1,1*%
%TO.N,Net-(U1-GPIO1_A0_D0)*%
X104890000Y-60970000D03*
%TO.P,M1,2,-*%
%TO.N,Net-(M1--)*%
X104890000Y-53350000D03*
%TO.P,M1,3*%
%TO.N,Net-(U1-GPIO3_A2_D2)*%
X82030000Y-53350000D03*
%TO.P,M1,4*%
%TO.N,Net-(U1-GPIO4_A3_D3)*%
X82030000Y-60970000D03*
%TD*%
D19*
%TO.P,SW1,1,A*%
%TO.N,unconnected-(SW1-A-Pad1)*%
X43000000Y-54500000D03*
D20*
%TO.P,SW1,2,B*%
%TO.N,Net-(BT2-+)*%
X43000000Y-57000000D03*
%TO.P,SW1,3,C*%
%TO.N,Net-(Brd1-VCC)*%
X43000000Y-59500000D03*
%TD*%
D21*
%TO.N,GND*%
X75000000Y-79620000D02*
X47380000Y-79620000D01*
X47380000Y-79620000D02*
X46000000Y-81000000D01*
X46000000Y-41000000D02*
X49920000Y-44920000D01*
X49920000Y-44920000D02*
X58380000Y-44920000D01*
X41000000Y-41000000D02*
X46000000Y-41000000D01*
X43000000Y-84000000D02*
X41000000Y-84000000D01*
X46000000Y-81000000D02*
X43000000Y-84000000D01*
X41000000Y-84000000D02*
X41000000Y-41000000D01*
D22*
%TO.N,Net-(Brd1-VCC)*%
X43000000Y-59500000D02*
X43000000Y-64920000D01*
X43500000Y-59500000D02*
X55540000Y-47460000D01*
X55540000Y-47460000D02*
X58380000Y-47460000D01*
%TO.N,Net-(BT2-+)*%
X45000000Y-46827500D02*
X45000000Y-56000000D01*
X43722500Y-45550000D02*
X45000000Y-46827500D01*
X45000000Y-56000000D02*
X44000000Y-57000000D01*
X44000000Y-57000000D02*
X43000000Y-57000000D01*
D21*
%TO.N,GND*%
X46000000Y-45827500D02*
X45722500Y-45550000D01*
X45722500Y-45550000D02*
X57750000Y-45550000D01*
X57750000Y-45550000D02*
X58380000Y-44920000D01*
D22*
%TO.N,Net-(Brd1-SCL)*%
X72223000Y-71763000D02*
X72223000Y-56477000D01*
X75000000Y-74540000D02*
X72223000Y-71763000D01*
X72223000Y-56477000D02*
X73620000Y-55080000D01*
%TO.N,Net-(Brd1-VCC)*%
X54000000Y-77000000D02*
X54000000Y-50932949D01*
X75000000Y-77080000D02*
X54080000Y-77080000D01*
X54000000Y-50932949D02*
X57472949Y-47460000D01*
X57472949Y-47460000D02*
X58380000Y-47460000D01*
X54080000Y-77080000D02*
X54000000Y-77000000D01*
%TO.N,Net-(Brd1-SDA)*%
X75000000Y-72000000D02*
X76541000Y-70459000D01*
X74540000Y-52540000D02*
X73620000Y-52540000D01*
X76541000Y-70459000D02*
X76541000Y-54541000D01*
X76541000Y-54541000D02*
X74540000Y-52540000D01*
%TO.N,Net-(U1-GPIO3_A2_D2)*%
X76140000Y-47460000D02*
X73620000Y-47460000D01*
X82030000Y-53350000D02*
X76140000Y-47460000D01*
%TO.N,Net-(U1-GPIO1_A0_D0)*%
X98000000Y-42000000D02*
X74000000Y-42000000D01*
X104890000Y-56985361D02*
X107875361Y-54000000D01*
X108000000Y-54000000D02*
X108000000Y-52000000D01*
X104890000Y-60970000D02*
X104890000Y-56985361D01*
X74000000Y-42000000D02*
X73620000Y-42380000D01*
X108000000Y-52000000D02*
X98000000Y-42000000D01*
X107875361Y-54000000D02*
X108000000Y-54000000D01*
%TO.N,Net-(M1--)*%
X96460000Y-44920000D02*
X73620000Y-44920000D01*
X104890000Y-53350000D02*
X96460000Y-44920000D01*
%TO.N,Net-(U1-GPIO4_A3_D3)*%
X82030000Y-60970000D02*
X80827919Y-60970000D01*
X78000000Y-58142081D02*
X78000000Y-53472949D01*
X80827919Y-60970000D02*
X78000000Y-58142081D01*
X74527051Y-50000000D02*
X73620000Y-50000000D01*
X78000000Y-53472949D02*
X74527051Y-50000000D01*
%TO.N,Net-(D1-A)*%
X43000000Y-80540000D02*
X43460000Y-81000000D01*
X43000000Y-75080000D02*
X43000000Y-80540000D01*
%TD*%
M02*
