%TF.GenerationSoftware,KiCad,Pcbnew,8.0.8*%
%TF.CreationDate,2025-02-21T09:36:53-08:00*%
%TF.ProjectId,PCB_Design,5043425f-4465-4736-9967-6e2e6b696361,V1.0*%
%TF.SameCoordinates,Original*%
%TF.FileFunction,Legend,Top*%
%TF.FilePolarity,Positive*%
%FSLAX46Y46*%
G04 Gerber Fmt 4.6, Leading zero omitted, Abs format (unit mm)*
G04 Created by KiCad (PCBNEW 8.0.8) date 2025-02-21 09:36:53*
%MOMM*%
%LPD*%
G01*
G04 APERTURE LIST*
%ADD10C,0.200000*%
G04 APERTURE END LIST*
D10*
X43917292Y-88622457D02*
X44256578Y-91622457D01*
X44256578Y-91622457D02*
X45095863Y-89479600D01*
X45095863Y-89479600D02*
X45399435Y-91622457D01*
X45399435Y-91622457D02*
X46488720Y-88622457D01*
X48542291Y-91622457D02*
X48738720Y-90051028D01*
X48738720Y-90051028D02*
X48631577Y-89765314D01*
X48631577Y-89765314D02*
X48363720Y-89622457D01*
X48363720Y-89622457D02*
X47792291Y-89622457D01*
X47792291Y-89622457D02*
X47488720Y-89765314D01*
X48560149Y-91479600D02*
X48256577Y-91622457D01*
X48256577Y-91622457D02*
X47542291Y-91622457D01*
X47542291Y-91622457D02*
X47274434Y-91479600D01*
X47274434Y-91479600D02*
X47167291Y-91193885D01*
X47167291Y-91193885D02*
X47203006Y-90908171D01*
X47203006Y-90908171D02*
X47381577Y-90622457D01*
X47381577Y-90622457D02*
X47685149Y-90479600D01*
X47685149Y-90479600D02*
X48399434Y-90479600D01*
X48399434Y-90479600D02*
X48703006Y-90336742D01*
X49935149Y-89622457D02*
X50399435Y-91622457D01*
X51363720Y-89622457D02*
X50399435Y-91622457D01*
X50399435Y-91622457D02*
X50024435Y-92336742D01*
X50024435Y-92336742D02*
X49863720Y-92479600D01*
X49863720Y-92479600D02*
X49560149Y-92622457D01*
X52506577Y-89622457D02*
X52256577Y-91622457D01*
X52470863Y-89908171D02*
X52631577Y-89765314D01*
X52631577Y-89765314D02*
X52935149Y-89622457D01*
X52935149Y-89622457D02*
X53363720Y-89622457D01*
X53363720Y-89622457D02*
X53631577Y-89765314D01*
X53631577Y-89765314D02*
X53738720Y-90051028D01*
X53738720Y-90051028D02*
X53542291Y-91622457D01*
X56131577Y-91479600D02*
X55828006Y-91622457D01*
X55828006Y-91622457D02*
X55256577Y-91622457D01*
X55256577Y-91622457D02*
X54988720Y-91479600D01*
X54988720Y-91479600D02*
X54881577Y-91193885D01*
X54881577Y-91193885D02*
X55024435Y-90051028D01*
X55024435Y-90051028D02*
X55203006Y-89765314D01*
X55203006Y-89765314D02*
X55506577Y-89622457D01*
X55506577Y-89622457D02*
X56078006Y-89622457D01*
X56078006Y-89622457D02*
X56345863Y-89765314D01*
X56345863Y-89765314D02*
X56453006Y-90051028D01*
X56453006Y-90051028D02*
X56417292Y-90336742D01*
X56417292Y-90336742D02*
X54953006Y-90622457D01*
X58060149Y-88622457D02*
X57703006Y-89193885D01*
X58845863Y-91479600D02*
X59113720Y-91622457D01*
X59113720Y-91622457D02*
X59685149Y-91622457D01*
X59685149Y-91622457D02*
X59988720Y-91479600D01*
X59988720Y-91479600D02*
X60167292Y-91193885D01*
X60167292Y-91193885D02*
X60185149Y-91051028D01*
X60185149Y-91051028D02*
X60078006Y-90765314D01*
X60078006Y-90765314D02*
X59810149Y-90622457D01*
X59810149Y-90622457D02*
X59381577Y-90622457D01*
X59381577Y-90622457D02*
X59113720Y-90479600D01*
X59113720Y-90479600D02*
X59006577Y-90193885D01*
X59006577Y-90193885D02*
X59024435Y-90051028D01*
X59024435Y-90051028D02*
X59203006Y-89765314D01*
X59203006Y-89765314D02*
X59506577Y-89622457D01*
X59506577Y-89622457D02*
X59935149Y-89622457D01*
X59935149Y-89622457D02*
X60203006Y-89765314D01*
X63685148Y-91622457D02*
X64060148Y-88622457D01*
X64060148Y-88622457D02*
X64774434Y-88622457D01*
X64774434Y-88622457D02*
X65185148Y-88765314D01*
X65185148Y-88765314D02*
X65435148Y-89051028D01*
X65435148Y-89051028D02*
X65542291Y-89336742D01*
X65542291Y-89336742D02*
X65613720Y-89908171D01*
X65613720Y-89908171D02*
X65560148Y-90336742D01*
X65560148Y-90336742D02*
X65345862Y-90908171D01*
X65345862Y-90908171D02*
X65167291Y-91193885D01*
X65167291Y-91193885D02*
X64845862Y-91479600D01*
X64845862Y-91479600D02*
X64399434Y-91622457D01*
X64399434Y-91622457D02*
X63685148Y-91622457D01*
X66685148Y-91622457D02*
X66935148Y-89622457D01*
X67060148Y-88622457D02*
X66899434Y-88765314D01*
X66899434Y-88765314D02*
X67024434Y-88908171D01*
X67024434Y-88908171D02*
X67185148Y-88765314D01*
X67185148Y-88765314D02*
X67060148Y-88622457D01*
X67060148Y-88622457D02*
X67024434Y-88908171D01*
X67988719Y-91479600D02*
X68256576Y-91622457D01*
X68256576Y-91622457D02*
X68828005Y-91622457D01*
X68828005Y-91622457D02*
X69131576Y-91479600D01*
X69131576Y-91479600D02*
X69310148Y-91193885D01*
X69310148Y-91193885D02*
X69328005Y-91051028D01*
X69328005Y-91051028D02*
X69220862Y-90765314D01*
X69220862Y-90765314D02*
X68953005Y-90622457D01*
X68953005Y-90622457D02*
X68524433Y-90622457D01*
X68524433Y-90622457D02*
X68256576Y-90479600D01*
X68256576Y-90479600D02*
X68149433Y-90193885D01*
X68149433Y-90193885D02*
X68167291Y-90051028D01*
X68167291Y-90051028D02*
X68345862Y-89765314D01*
X68345862Y-89765314D02*
X68649433Y-89622457D01*
X68649433Y-89622457D02*
X69078005Y-89622457D01*
X69078005Y-89622457D02*
X69345862Y-89765314D01*
X70792290Y-89622457D02*
X70417290Y-92622457D01*
X70774433Y-89765314D02*
X71078004Y-89622457D01*
X71078004Y-89622457D02*
X71649433Y-89622457D01*
X71649433Y-89622457D02*
X71917290Y-89765314D01*
X71917290Y-89765314D02*
X72042290Y-89908171D01*
X72042290Y-89908171D02*
X72149433Y-90193885D01*
X72149433Y-90193885D02*
X72042290Y-91051028D01*
X72042290Y-91051028D02*
X71863719Y-91336742D01*
X71863719Y-91336742D02*
X71703004Y-91479600D01*
X71703004Y-91479600D02*
X71399433Y-91622457D01*
X71399433Y-91622457D02*
X70828004Y-91622457D01*
X70828004Y-91622457D02*
X70560147Y-91479600D01*
X73685148Y-91622457D02*
X73417290Y-91479600D01*
X73417290Y-91479600D02*
X73310148Y-91193885D01*
X73310148Y-91193885D02*
X73631576Y-88622457D01*
X76113719Y-91622457D02*
X76310148Y-90051028D01*
X76310148Y-90051028D02*
X76203005Y-89765314D01*
X76203005Y-89765314D02*
X75935148Y-89622457D01*
X75935148Y-89622457D02*
X75363719Y-89622457D01*
X75363719Y-89622457D02*
X75060148Y-89765314D01*
X76131577Y-91479600D02*
X75828005Y-91622457D01*
X75828005Y-91622457D02*
X75113719Y-91622457D01*
X75113719Y-91622457D02*
X74845862Y-91479600D01*
X74845862Y-91479600D02*
X74738719Y-91193885D01*
X74738719Y-91193885D02*
X74774434Y-90908171D01*
X74774434Y-90908171D02*
X74953005Y-90622457D01*
X74953005Y-90622457D02*
X75256577Y-90479600D01*
X75256577Y-90479600D02*
X75970862Y-90479600D01*
X75970862Y-90479600D02*
X76274434Y-90336742D01*
X77506577Y-89622457D02*
X77970863Y-91622457D01*
X78935148Y-89622457D02*
X77970863Y-91622457D01*
X77970863Y-91622457D02*
X77595863Y-92336742D01*
X77595863Y-92336742D02*
X77435148Y-92479600D01*
X77435148Y-92479600D02*
X77131577Y-92622457D01*
X83310148Y-90051028D02*
X83720862Y-90193885D01*
X83720862Y-90193885D02*
X83845862Y-90336742D01*
X83845862Y-90336742D02*
X83953005Y-90622457D01*
X83953005Y-90622457D02*
X83899433Y-91051028D01*
X83899433Y-91051028D02*
X83720862Y-91336742D01*
X83720862Y-91336742D02*
X83560148Y-91479600D01*
X83560148Y-91479600D02*
X83256576Y-91622457D01*
X83256576Y-91622457D02*
X82113719Y-91622457D01*
X82113719Y-91622457D02*
X82488719Y-88622457D01*
X82488719Y-88622457D02*
X83488719Y-88622457D01*
X83488719Y-88622457D02*
X83756576Y-88765314D01*
X83756576Y-88765314D02*
X83881576Y-88908171D01*
X83881576Y-88908171D02*
X83988719Y-89193885D01*
X83988719Y-89193885D02*
X83953005Y-89479600D01*
X83953005Y-89479600D02*
X83774433Y-89765314D01*
X83774433Y-89765314D02*
X83613719Y-89908171D01*
X83613719Y-89908171D02*
X83310148Y-90051028D01*
X83310148Y-90051028D02*
X82310148Y-90051028D01*
X85542291Y-91622457D02*
X85274433Y-91479600D01*
X85274433Y-91479600D02*
X85149433Y-91336742D01*
X85149433Y-91336742D02*
X85042291Y-91051028D01*
X85042291Y-91051028D02*
X85149433Y-90193885D01*
X85149433Y-90193885D02*
X85328005Y-89908171D01*
X85328005Y-89908171D02*
X85488719Y-89765314D01*
X85488719Y-89765314D02*
X85792291Y-89622457D01*
X85792291Y-89622457D02*
X86220862Y-89622457D01*
X86220862Y-89622457D02*
X86488719Y-89765314D01*
X86488719Y-89765314D02*
X86613719Y-89908171D01*
X86613719Y-89908171D02*
X86720862Y-90193885D01*
X86720862Y-90193885D02*
X86613719Y-91051028D01*
X86613719Y-91051028D02*
X86435148Y-91336742D01*
X86435148Y-91336742D02*
X86274433Y-91479600D01*
X86274433Y-91479600D02*
X85970862Y-91622457D01*
X85970862Y-91622457D02*
X85542291Y-91622457D01*
X89113719Y-91622457D02*
X89310148Y-90051028D01*
X89310148Y-90051028D02*
X89203005Y-89765314D01*
X89203005Y-89765314D02*
X88935148Y-89622457D01*
X88935148Y-89622457D02*
X88363719Y-89622457D01*
X88363719Y-89622457D02*
X88060148Y-89765314D01*
X89131577Y-91479600D02*
X88828005Y-91622457D01*
X88828005Y-91622457D02*
X88113719Y-91622457D01*
X88113719Y-91622457D02*
X87845862Y-91479600D01*
X87845862Y-91479600D02*
X87738719Y-91193885D01*
X87738719Y-91193885D02*
X87774434Y-90908171D01*
X87774434Y-90908171D02*
X87953005Y-90622457D01*
X87953005Y-90622457D02*
X88256577Y-90479600D01*
X88256577Y-90479600D02*
X88970862Y-90479600D01*
X88970862Y-90479600D02*
X89274434Y-90336742D01*
X90542291Y-91622457D02*
X90792291Y-89622457D01*
X90720863Y-90193885D02*
X90899434Y-89908171D01*
X90899434Y-89908171D02*
X91060148Y-89765314D01*
X91060148Y-89765314D02*
X91363720Y-89622457D01*
X91363720Y-89622457D02*
X91649434Y-89622457D01*
X93685148Y-91622457D02*
X94060148Y-88622457D01*
X93703006Y-91479600D02*
X93399434Y-91622457D01*
X93399434Y-91622457D02*
X92828006Y-91622457D01*
X92828006Y-91622457D02*
X92560148Y-91479600D01*
X92560148Y-91479600D02*
X92435148Y-91336742D01*
X92435148Y-91336742D02*
X92328006Y-91051028D01*
X92328006Y-91051028D02*
X92435148Y-90193885D01*
X92435148Y-90193885D02*
X92613720Y-89908171D01*
X92613720Y-89908171D02*
X92774434Y-89765314D01*
X92774434Y-89765314D02*
X93078006Y-89622457D01*
X93078006Y-89622457D02*
X93649434Y-89622457D01*
X93649434Y-89622457D02*
X93917291Y-89765314D01*
X97345863Y-88622457D02*
X97970863Y-91622457D01*
X97970863Y-91622457D02*
X99345863Y-88622457D01*
X100167292Y-88908171D02*
X100328006Y-88765314D01*
X100328006Y-88765314D02*
X100631577Y-88622457D01*
X100631577Y-88622457D02*
X101345863Y-88622457D01*
X101345863Y-88622457D02*
X101613720Y-88765314D01*
X101613720Y-88765314D02*
X101738720Y-88908171D01*
X101738720Y-88908171D02*
X101845863Y-89193885D01*
X101845863Y-89193885D02*
X101810149Y-89479600D01*
X101810149Y-89479600D02*
X101613720Y-89908171D01*
X101613720Y-89908171D02*
X99685149Y-91622457D01*
X99685149Y-91622457D02*
X101542292Y-91622457D01*
X102863720Y-91336742D02*
X102988720Y-91479600D01*
X102988720Y-91479600D02*
X102828006Y-91622457D01*
X102828006Y-91622457D02*
X102703006Y-91479600D01*
X102703006Y-91479600D02*
X102863720Y-91336742D01*
X102863720Y-91336742D02*
X102828006Y-91622457D01*
X105203006Y-88622457D02*
X105488720Y-88622457D01*
X105488720Y-88622457D02*
X105756577Y-88765314D01*
X105756577Y-88765314D02*
X105881577Y-88908171D01*
X105881577Y-88908171D02*
X105988720Y-89193885D01*
X105988720Y-89193885D02*
X106060149Y-89765314D01*
X106060149Y-89765314D02*
X105970863Y-90479600D01*
X105970863Y-90479600D02*
X105756577Y-91051028D01*
X105756577Y-91051028D02*
X105578006Y-91336742D01*
X105578006Y-91336742D02*
X105417291Y-91479600D01*
X105417291Y-91479600D02*
X105113720Y-91622457D01*
X105113720Y-91622457D02*
X104828006Y-91622457D01*
X104828006Y-91622457D02*
X104560149Y-91479600D01*
X104560149Y-91479600D02*
X104435149Y-91336742D01*
X104435149Y-91336742D02*
X104328006Y-91051028D01*
X104328006Y-91051028D02*
X104256577Y-90479600D01*
X104256577Y-90479600D02*
X104345863Y-89765314D01*
X104345863Y-89765314D02*
X104560149Y-89193885D01*
X104560149Y-89193885D02*
X104738720Y-88908171D01*
X104738720Y-88908171D02*
X104899434Y-88765314D01*
X104899434Y-88765314D02*
X105203006Y-88622457D01*
M02*
